<?xml version="1.0" standalone="no"?>
<!DOCTYPE svg PUBLIC "-//W3C//DTD SVG 20010904//EN"
 "http://www.w3.org/TR/2001/REC-SVG-20010904/DTD/svg10.dtd">
<svg version="1.0" xmlns="http://www.w3.org/2000/svg"
 width="412.000000pt" height="105.000000pt" viewBox="0 0 412.000000 105.000000"
 preserveAspectRatio="xMidYMid meet">

<g transform="translate(0.000000,105.000000) scale(0.100000,-0.100000)"
fill="#000000" stroke="none">
<path d="M82 968 c-17 -17 -17 -859 0 -876 17 -17 3959 -17 3976 0 17 17 17
859 0 876 -17 17 -3959 17 -3976 0z m3888 -438 l0 -350 -1900 0 -1900 0 0 350
0 350 1900 0 1900 0 0 -350z"/>
<path d="M1305 743 c-34 -9 -82 -50 -99 -86 -13 -28 -16 -67 -16 -191 l0 -156
35 0 35 0 0 49 c0 30 5 51 13 53 20 8 155 10 177 3 16 -5 20 -15 20 -56 l0
-50 38 3 37 3 3 100 c6 190 -11 257 -79 307 -26 20 -124 32 -164 21z m109 -73
c39 -14 57 -61 54 -133 l-3 -62 -100 0 -100 0 1 67 c1 112 59 162 148 128z"/>
<path d="M1849 737 c-79 -30 -137 -96 -154 -174 -18 -87 34 -188 120 -232 46
-24 169 -29 224 -10 30 11 32 15 27 42 -8 41 -9 41 -51 27 -51 -17 -126 -15
-161 3 -87 45 -107 158 -42 233 41 46 93 59 172 44 54 -11 61 -10 73 6 7 10
13 23 13 30 0 31 -160 54 -221 31z"/>
<path d="M3605 736 c-48 -18 -81 -53 -94 -104 -6 -20 -11 -101 -11 -180 l0
-143 38 3 c37 3 37 3 42 53 l5 50 95 0 95 0 5 -50 c5 -50 5 -50 43 -53 l39 -3
-4 158 c-4 179 -15 217 -74 254 -44 27 -127 34 -179 15z m153 -91 c20 -24 22
-36 20 -99 l-3 -71 -97 -3 -98 -3 0 68 c0 76 14 111 50 131 38 20 101 8 128
-23z"/>
<path d="M310 525 l0 -215 35 0 34 0 3 63 3 62 60 5 c112 10 160 55 160 150 0
108 -58 150 -205 150 l-90 0 0 -215z m191 126 c18 -14 24 -29 24 -60 0 -57
-27 -82 -91 -84 l-49 -2 -3 83 -3 82 49 0 c34 0 57 -6 73 -19z"/>
<path d="M750 525 l0 -215 140 0 140 0 0 35 0 35 -100 0 -100 0 0 50 0 49 88
3 87 3 3 33 3 32 -90 0 -91 0 0 60 0 60 100 0 100 0 0 35 0 35 -140 0 -140 0
0 -215z"/>
<path d="M2170 705 l0 -35 70 0 70 0 0 -181 0 -180 38 3 37 3 3 177 2 177 68
3 67 3 0 30 0 30 -177 3 -178 2 0 -35z"/>
<path d="M2657 734 c-10 -10 -8 -396 2 -412 5 -8 21 -12 37 -10 l29 3 3 83 3
82 104 0 105 0 0 -85 0 -85 35 0 35 0 0 215 0 215 -35 0 -35 0 0 -95 0 -95
-105 0 -104 0 -3 93 -3 92 -30 3 c-17 2 -34 0 -38 -4z"/>
<path d="M3185 480 c-3 -6 -3 -19 0 -30 6 -17 15 -20 76 -20 38 0 70 4 70 10
1 6 2 16 3 23 1 6 -3 15 -9 19 -15 11 -133 9 -140 -2z"/>
</g>
</svg>
