<?xml version="1.0" standalone="no"?>
<!DOCTYPE svg PUBLIC "-//W3C//DTD SVG 20010904//EN"
 "http://www.w3.org/TR/2001/REC-SVG-20010904/DTD/svg10.dtd">
<svg version="1.0" xmlns="http://www.w3.org/2000/svg"
 width="492.000000pt" height="117.000000pt" viewBox="0 0 492.000000 117.000000"
 preserveAspectRatio="xMidYMid meet">

<g transform="translate(0.000000,117.000000) scale(0.100000,-0.100000)"
fill="#000000" stroke="none">
<path d="M55 1088 c-3 -7 -4 -236 -3 -508 l3 -495 2385 0 2385 0 0 505 0 505
-2383 3 c-1901 2 -2384 0 -2387 -10z m4745 -498 l0 -480 -2360 0 -2360 0 0
480 0 480 2360 0 2360 0 0 -480z"/>
<path d="M1944 855 c-64 -20 -85 -34 -130 -81 -99 -106 -97 -287 3 -391 59
-61 112 -83 198 -83 71 0 122 18 168 58 29 26 12 24 -28 -2 -92 -63 -218 -58
-301 11 -105 88 -125 262 -43 377 76 106 225 134 334 65 51 -33 63 -36 44 -13
-27 32 -130 74 -179 73 -14 -1 -44 -7 -66 -14z"/>
<path d="M4360 856 c-116 -32 -177 -98 -201 -215 -11 -49 -11 -73 0 -122 28
-139 126 -219 267 -219 70 0 137 24 171 62 23 26 2 22 -37 -7 -115 -85 -283
-44 -355 87 -27 48 -30 62 -30 143 1 89 1 92 40 149 54 80 112 111 210 110 69
-1 120 -18 153 -50 16 -16 36 -19 27 -4 -13 20 -80 57 -127 68 -55 14 -59 14
-118 -2z"/>
<path d="M287 843 c-11 -11 -8 -521 3 -528 6 -4 10 31 10 99 0 57 3 111 6 120
5 13 25 16 111 16 117 0 147 10 187 63 49 65 29 172 -41 218 -23 16 -48 19
-149 19 -66 0 -124 -3 -127 -7z m251 -17 c39 -20 58 -45 72 -93 12 -38 11 -46
-11 -90 -34 -69 -72 -85 -197 -81 l-97 3 -3 124 c-1 69 0 131 2 138 8 19 197
18 234 -1z"/>
<path d="M752 583 l3 -268 158 -5 c88 -3 161 -2 163 2 3 4 -64 9 -148 10
l-153 3 0 125 0 125 150 5 150 6 -150 4 -150 5 0 120 0 120 155 5 155 6 -168
2 -167 2 2 -267z"/>
<path d="M1391 833 c-5 -10 -26 -58 -46 -108 -20 -49 -47 -114 -61 -143 -13
-29 -24 -57 -24 -62 0 -6 -4 -18 -10 -28 -30 -54 -70 -157 -67 -171 2 -10 10
-1 22 24 10 22 25 56 34 75 l17 35 139 3 c77 1 149 0 160 -2 14 -4 29 -28 49
-76 15 -38 32 -70 37 -70 13 0 11 10 -11 55 -11 22 -19 43 -20 47 0 4 -12 33
-26 65 -30 69 -44 101 -55 128 -9 23 -46 111 -59 140 -5 11 -16 39 -26 63 -19
45 -37 53 -53 25z m65 -94 c17 -41 38 -91 47 -113 9 -21 17 -41 17 -45 1 -3 9
-24 20 -46 32 -67 35 -65 -125 -65 -125 0 -145 2 -145 16 0 29 133 335 144
331 6 -2 25 -37 42 -78z"/>
<path d="M2373 843 l97 -4 0 -265 c0 -174 3 -263 10 -259 6 4 10 103 10 265
l0 259 93 4 c50 1 2 3 -108 3 -110 0 -156 -2 -102 -3z"/>
<path d="M2802 845 c-4 -12 -4 -516 0 -530 1 -5 5 51 8 125 l5 135 192 3 193
2 5 -22 c3 -13 6 -75 8 -138 1 -63 3 9 3 160 0 151 -2 221 -3 156 -2 -67 -8
-126 -15 -133 -8 -10 -53 -13 -187 -13 -97 0 -181 4 -188 8 -8 5 -13 48 -16
132 -1 69 -4 121 -5 115z"/>
<path d="M3800 838 c-1 -7 -9 -31 -20 -53 -11 -22 -19 -43 -20 -47 0 -4 -12
-33 -26 -65 -25 -56 -46 -106 -64 -148 -26 -64 -42 -102 -50 -120 -31 -69 -39
-96 -28 -93 7 3 23 31 36 64 13 32 29 65 34 72 8 8 52 12 158 12 130 0 149 -2
163 -18 10 -10 17 -22 17 -25 0 -15 44 -107 51 -107 9 0 -9 60 -22 74 -5 6 -9
16 -9 22 0 7 -13 41 -28 76 -16 35 -57 132 -92 216 -49 118 -67 152 -82 152
-10 0 -18 -6 -18 -12z m102 -187 c37 -90 65 -167 62 -172 -7 -12 -281 -12
-289 1 -3 5 -1 17 4 27 6 10 20 41 31 68 12 28 25 59 30 70 5 11 19 45 31 75
11 30 25 65 30 78 5 13 14 22 21 20 6 -2 42 -77 80 -167z"/>
<path d="M3340 500 c0 -6 37 -10 90 -10 53 0 90 4 90 10 0 6 -37 10 -90 10
-53 0 -90 -4 -90 -10z"/>
</g>
</svg>
