<svg id="svg" version="1.1" xmlns="http://www.w3.org/2000/svg" xmlns:xlink="http://www.w3.org/1999/xlink" width="400" height="133.34901222953903" viewBox="0, 0, 400,133.34901222953903"><g id="svgg"><path id="path0" d="M44.140 11.744 C 38.658 12.877,35.200 17.125,36.469 21.167 C 36.722 21.973,38.328 28.045,38.585 29.167 C 38.700 29.671,38.944 30.657,39.126 31.358 C 39.308 32.059,39.409 32.711,39.350 32.806 C 39.237 32.989,35.511 30.592,34.597 29.750 C 32.576 27.887,29.904 27.332,27.955 28.371 C 27.087 28.833,25.667 30.161,25.667 30.510 C 25.667 30.582,25.292 31.245,24.833 31.984 C 24.375 32.723,24.000 33.363,24.000 33.406 C 24.000 33.450,23.788 33.845,23.530 34.284 C 21.599 37.565,23.148 40.817,27.608 42.844 C 33.393 45.472,34.099 45.908,35.250 47.562 C 35.943 48.558,35.922 48.623,34.734 49.162 C 30.739 50.973,28.071 53.556,25.484 58.117 C 20.825 66.331,22.636 82.078,29.424 92.371 C 29.649 92.713,29.833 93.055,29.833 93.132 C 29.833 93.208,29.965 93.416,30.125 93.594 C 30.285 93.771,30.642 94.254,30.917 94.667 C 31.192 95.079,31.510 95.516,31.625 95.637 C 31.740 95.758,31.833 95.909,31.833 95.972 C 31.833 96.035,32.003 96.273,32.211 96.502 C 32.419 96.730,32.886 97.292,33.250 97.750 C 34.881 99.806,39.602 104.570,41.429 106.002 C 41.605 106.141,42.237 106.626,42.833 107.081 C 43.429 107.536,43.992 107.968,44.083 108.041 C 44.642 108.488,47.323 110.429,47.687 110.651 C 47.927 110.797,48.647 111.264,49.287 111.689 C 49.927 112.113,51.192 112.892,52.100 113.419 C 53.007 113.945,54.012 114.530,54.333 114.717 C 57.520 116.580,63.357 119.185,67.083 120.407 C 68.092 120.737,69.029 121.055,69.167 121.112 C 69.304 121.170,69.492 121.235,69.583 121.257 C 69.675 121.280,70.200 121.448,70.750 121.631 C 73.302 122.482,75.549 122.808,76.796 122.509 C 77.571 122.323,78.191 121.882,79.742 120.417 C 80.033 120.142,81.239 119.017,82.422 117.917 C 91.756 109.242,96.124 103.459,99.419 95.417 C 99.757 94.592,100.101 93.767,100.183 93.583 C 100.619 92.608,102.459 86.450,102.748 85.000 C 102.841 84.532,103.479 83.799,105.972 81.292 L 109.080 78.167 111.040 78.167 L 113.000 78.167 113.000 85.750 L 113.000 93.333 115.500 93.333 L 118.000 93.333 118.000 86.016 L 118.000 78.699 123.708 78.623 C 126.848 78.581,129.604 78.500,129.833 78.444 C 130.063 78.388,130.625 78.259,131.083 78.158 C 141.503 75.866,142.611 61.072,132.638 57.395 C 130.603 56.645,130.275 56.620,121.458 56.548 L 113.000 56.478 113.000 65.322 L 113.000 74.167 110.175 74.167 L 107.350 74.167 104.763 76.776 C 103.129 78.425,102.150 79.300,102.104 79.151 C 102.043 78.956,101.840 77.922,101.403 75.583 C 101.239 74.705,100.603 71.414,100.324 70.000 C 99.838 67.542,99.833 67.512,99.587 65.833 C 99.460 64.962,99.312 63.725,99.258 63.083 C 99.205 62.442,99.128 61.729,99.088 61.500 C 99.048 61.271,98.971 60.708,98.916 60.250 C 98.739 58.780,98.383 56.522,98.077 54.933 C 97.960 54.323,97.601 52.880,97.245 51.583 C 96.814 50.016,94.712 45.853,93.627 44.417 C 93.557 44.325,93.076 43.688,92.558 43.000 C 92.039 42.313,91.570 41.711,91.516 41.663 C 91.461 41.615,91.162 41.301,90.851 40.964 L 90.286 40.352 91.435 39.026 C 92.750 37.507,93.168 36.991,94.756 34.931 C 95.385 34.113,96.060 33.272,96.256 33.061 C 98.770 30.348,98.303 25.924,95.294 23.964 C 91.326 21.380,87.481 22.774,84.473 27.888 C 83.751 29.115,83.498 29.267,83.907 28.229 C 86.541 21.538,86.147 16.761,82.770 14.460 C 78.943 11.851,75.842 11.860,73.486 14.487 C 72.559 15.519,72.109 16.613,71.648 18.951 C 71.428 20.065,71.169 20.197,71.163 19.198 C 71.152 17.325,70.274 14.765,69.327 13.847 C 67.100 11.685,63.270 11.693,59.993 13.864 C 58.128 15.100,57.451 16.310,57.257 18.755 C 57.163 19.944,57.212 20.480,57.574 22.250 C 60.237 35.243,60.730 38.042,60.398 38.282 C 59.650 38.825,58.876 39.470,58.091 40.204 C 57.040 41.187,57.295 41.263,55.581 39.458 C 52.733 36.459,52.593 36.181,52.420 33.167 C 52.370 32.296,52.290 31.096,52.243 30.500 C 52.196 29.904,52.124 28.704,52.082 27.833 C 52.040 26.962,51.969 25.875,51.923 25.417 C 51.878 24.958,51.801 24.077,51.754 23.458 C 51.541 20.709,51.459 19.966,51.161 18.083 C 50.318 12.762,48.250 10.894,44.140 11.744 M45.966 15.607 C 46.620 15.782,46.964 16.713,47.251 19.083 C 47.285 19.358,47.353 19.921,47.403 20.333 C 47.630 22.209,47.781 23.951,47.917 26.250 C 47.965 27.075,48.041 28.162,48.086 28.667 C 48.131 29.171,48.210 30.446,48.261 31.500 C 48.560 37.598,49.102 38.807,53.458 43.080 L 54.499 44.102 53.458 45.682 C 52.885 46.551,52.229 47.615,52.000 48.047 C 51.546 48.904,51.718 48.858,50.083 48.562 C 49.900 48.529,49.112 48.391,48.333 48.255 C 47.554 48.118,46.654 47.958,46.333 47.898 C 46.012 47.838,44.417 47.773,42.787 47.755 L 39.824 47.721 39.268 46.569 C 38.085 44.116,36.524 42.606,33.833 41.314 C 25.673 37.396,26.069 37.882,28.144 34.328 C 29.840 31.423,30.229 31.284,32.085 32.919 C 32.946 33.676,37.775 36.923,38.386 37.155 C 39.658 37.638,41.092 37.234,42.105 36.108 C 43.704 34.329,43.787 33.027,42.594 28.417 C 41.539 24.338,40.844 21.699,40.641 21.000 C 40.080 19.078,40.075 18.901,40.562 18.263 C 41.529 16.995,44.922 15.327,45.966 15.607 M65.690 16.337 C 66.644 16.602,66.993 17.520,67.241 20.417 C 67.296 21.058,67.377 21.958,67.422 22.417 C 67.540 23.621,67.627 30.954,67.547 32.940 L 67.479 34.630 66.031 35.190 C 65.235 35.498,64.536 35.772,64.478 35.799 C 64.387 35.841,63.981 33.936,63.244 30.000 C 63.132 29.404,62.811 27.792,62.530 26.417 C 62.249 25.042,61.979 23.692,61.930 23.417 C 61.881 23.142,61.760 22.542,61.661 22.083 C 61.353 20.662,61.272 18.551,61.503 17.992 C 61.954 16.905,64.339 15.962,65.690 16.337 M78.907 16.905 C 80.265 17.506,81.258 18.248,81.507 18.850 C 81.851 19.681,81.118 24.307,80.341 26.205 C 80.256 26.413,79.952 27.258,79.665 28.083 C 79.379 28.908,79.075 29.733,78.990 29.917 C 78.834 30.255,77.883 32.841,77.718 33.375 C 77.617 33.703,77.279 33.728,75.282 33.559 L 74.014 33.452 74.082 32.601 C 74.119 32.133,74.236 30.662,74.340 29.333 C 75.211 18.266,76.158 15.689,78.907 16.905 M92.957 27.276 C 94.356 28.074,94.020 29.718,92.028 31.817 C 91.906 31.946,91.499 32.471,91.123 32.984 C 90.747 33.497,90.397 33.954,90.345 34.000 C 90.263 34.072,89.990 34.407,88.667 36.063 C 88.529 36.236,88.242 36.572,88.028 36.810 C 87.815 37.049,87.584 37.344,87.516 37.465 C 87.396 37.680,84.681 36.256,84.671 35.973 C 84.667 35.872,85.178 34.905,87.077 31.417 C 87.725 30.227,88.250 29.411,88.603 29.046 C 88.712 28.934,88.959 28.585,89.153 28.272 C 89.481 27.742,89.930 27.356,90.750 26.903 C 91.214 26.646,92.121 26.800,92.957 27.276 M77.500 37.854 C 80.790 38.383,83.931 39.940,86.500 42.316 C 87.107 42.877,87.473 43.324,87.333 43.332 C 83.599 43.543,80.076 45.004,77.234 47.518 C 75.482 49.068,75.123 49.322,73.581 50.097 C 68.949 52.425,62.411 51.811,57.865 48.620 C 57.444 48.325,57.029 48.035,56.944 47.976 C 56.821 47.892,57.403 46.924,57.832 46.500 C 57.879 46.454,58.204 46.059,58.555 45.623 C 63.305 39.711,70.556 36.738,77.500 37.854 M90.676 47.533 C 91.929 48.582,93.624 52.865,94.257 56.583 C 94.612 58.666,94.962 61.138,95.328 64.140 L 95.497 65.530 94.328 69.723 C 93.686 72.030,93.083 74.157,92.988 74.451 C 92.894 74.745,92.791 75.120,92.759 75.284 C 92.728 75.449,92.500 76.296,92.253 77.167 C 92.006 78.037,91.630 79.425,91.416 80.250 C 90.783 82.688,90.747 82.742,90.528 81.579 C 90.425 81.031,89.999 79.158,89.582 77.417 C 89.164 75.675,88.669 73.575,88.482 72.750 C 87.999 70.626,87.919 70.276,87.500 68.500 C 87.295 67.629,87.064 66.617,86.986 66.250 C 86.786 65.308,86.708 64.992,86.520 64.372 C 86.429 64.072,86.353 63.772,86.352 63.705 C 86.347 63.514,85.839 61.305,85.672 60.750 C 85.589 60.475,85.443 59.837,85.347 59.333 C 84.936 57.164,83.695 52.271,83.613 52.500 C 83.496 52.831,82.705 56.204,81.661 60.833 C 81.195 62.896,80.555 65.708,80.238 67.083 C 79.921 68.458,79.431 70.633,79.148 71.917 L 78.635 74.250 77.276 74.223 C 75.433 74.186,75.500 74.198,75.500 73.919 C 75.500 72.245,72.418 68.684,70.296 67.907 C 63.524 65.428,57.012 69.577,56.956 76.406 C 56.887 85.006,68.192 89.425,73.364 82.819 C 74.050 81.943,74.793 80.525,75.257 79.208 L 75.566 78.333 78.678 78.333 L 81.790 78.333 81.973 77.625 C 82.161 76.896,82.714 74.533,82.938 73.500 C 83.008 73.179,83.073 72.879,83.084 72.833 C 83.095 72.787,83.242 72.151,83.411 71.419 L 83.718 70.088 83.947 71.086 C 84.074 71.634,84.289 72.533,84.426 73.083 C 84.563 73.633,84.705 74.233,84.740 74.417 C 84.911 75.287,85.605 78.289,85.917 79.500 C 86.047 80.004,86.187 80.604,86.228 80.833 C 86.270 81.063,86.915 83.875,87.662 87.083 C 89.610 95.449,89.760 96.099,90.094 97.622 C 90.259 98.377,90.417 98.971,90.445 98.944 C 90.473 98.916,90.900 97.399,91.395 95.572 C 91.890 93.745,92.607 91.125,92.989 89.750 C 93.370 88.375,93.711 87.138,93.745 87.000 C 93.780 86.862,94.119 85.625,94.498 84.250 C 95.350 81.160,95.856 79.302,95.905 79.083 C 95.925 78.992,96.102 78.392,96.298 77.750 C 96.494 77.108,96.739 76.184,96.843 75.697 C 96.947 75.209,97.056 74.834,97.086 74.863 C 97.115 74.893,97.372 76.117,97.657 77.583 C 97.942 79.050,98.336 81.057,98.532 82.044 C 98.934 84.070,98.959 83.882,97.772 87.917 C 96.570 92.003,93.947 98.278,92.930 99.500 C 92.816 99.638,92.476 100.200,92.174 100.750 C 91.682 101.648,90.254 103.788,90.006 104.000 C 89.952 104.046,89.651 104.421,89.337 104.833 C 87.417 107.352,79.923 114.960,76.436 117.931 C 75.639 118.609,75.634 118.611,74.693 118.471 C 73.804 118.339,70.911 117.519,70.001 117.142 C 69.773 117.048,68.723 116.683,67.668 116.331 C 64.289 115.205,60.205 113.367,56.710 111.400 C 56.320 111.180,55.644 110.802,55.208 110.560 C 54.773 110.317,54.218 109.980,53.974 109.810 C 53.731 109.639,53.487 109.500,53.433 109.500 C 53.326 109.500,49.471 106.999,49.333 106.841 C 49.288 106.788,48.725 106.392,48.083 105.961 C 47.442 105.530,46.617 104.914,46.250 104.592 C 45.883 104.270,45.539 104.005,45.484 104.003 C 45.429 104.001,45.230 103.869,45.041 103.708 C 44.851 103.548,44.372 103.154,43.975 102.833 C 35.428 95.921,29.997 87.264,27.592 76.720 C 26.972 74.004,26.966 74.026,28.125 74.779 C 30.399 76.256,34.039 77.855,35.713 78.113 C 36.008 78.159,36.550 78.251,36.917 78.318 C 38.972 78.692,43.580 78.025,45.250 77.111 C 45.433 77.011,45.621 76.923,45.667 76.916 C 46.217 76.831,48.608 75.113,49.367 74.258 C 51.114 72.291,52.340 69.986,52.784 67.833 C 53.099 66.306,53.296 63.851,53.321 61.124 C 53.338 59.302,53.380 57.723,53.415 57.614 C 53.450 57.506,53.523 57.004,53.578 56.500 C 53.679 55.561,54.336 52.785,54.653 51.952 L 54.830 51.488 55.746 52.073 C 63.683 57.151,73.103 56.723,79.366 51.000 C 81.247 49.282,83.657 48.001,85.608 47.684 C 87.974 47.299,90.314 47.229,90.676 47.533 M47.723 52.233 C 50.414 52.709,50.186 52.590,50.000 53.421 C 49.918 53.785,49.810 54.327,49.759 54.625 C 49.708 54.923,49.625 55.409,49.574 55.706 C 49.396 56.740,49.347 57.608,49.258 61.250 C 49.107 67.407,48.581 69.257,46.340 71.513 C 41.966 75.914,34.017 74.982,27.336 69.284 L 26.790 68.818 26.896 67.503 C 26.954 66.780,27.118 65.734,27.260 65.178 C 27.402 64.623,27.546 64.027,27.579 63.855 C 28.181 60.731,30.986 56.459,33.805 54.371 C 35.893 52.825,37.285 52.306,40.583 51.843 C 42.081 51.632,45.335 51.810,47.723 52.233 M216.750 56.253 C 211.743 57.183,207.853 60.909,206.139 66.417 C 205.406 68.772,205.200 78.901,205.823 81.935 C 207.032 87.830,210.679 92.028,215.771 93.391 C 224.323 95.680,232.484 90.692,233.113 82.792 L 233.216 81.500 230.698 81.500 L 228.179 81.500 228.190 82.387 C 228.231 85.848,225.799 88.822,222.250 89.650 C 216.186 91.066,211.474 87.237,210.647 80.223 C 210.385 78.001,210.554 69.220,210.883 68.000 C 212.399 62.368,215.452 59.802,220.358 60.038 C 224.883 60.255,227.886 62.961,228.132 67.042 L 228.209 68.333 230.710 68.333 L 233.210 68.333 233.118 66.958 C 232.924 64.085,231.999 61.939,230.050 59.840 C 229.365 59.103,228.698 58.500,228.569 58.500 C 228.439 58.500,228.333 58.436,228.333 58.359 C 228.333 58.159,226.122 57.106,224.833 56.692 C 222.720 56.014,219.097 55.817,216.750 56.253 M372.750 56.104 C 372.567 56.140,372.004 56.250,371.500 56.348 C 368.310 56.967,364.688 59.545,363.078 62.343 C 360.926 66.084,360.615 67.836,360.715 75.627 C 360.809 82.954,361.150 84.543,363.335 87.809 C 364.557 89.636,367.655 92.500,368.409 92.500 C 368.461 92.500,368.822 92.645,369.210 92.823 C 374.788 95.371,384.200 92.932,386.375 88.375 C 386.473 88.169,386.606 88.000,386.671 88.000 C 387.141 88.000,388.202 84.427,388.230 82.750 L 388.250 81.583 385.879 81.537 C 383.163 81.484,383.500 81.245,383.200 83.436 C 382.658 87.405,379.499 89.890,375.003 89.885 C 370.413 89.880,367.553 87.390,366.135 82.167 C 365.538 79.970,365.545 69.821,366.144 67.667 C 367.771 61.817,372.270 58.845,377.417 60.219 C 380.667 61.087,382.785 63.352,383.202 66.409 C 383.498 68.573,383.156 68.333,385.942 68.333 L 388.377 68.333 388.283 67.125 C 387.883 61.991,385.033 58.323,380.236 56.766 C 378.267 56.128,374.378 55.784,372.750 56.104 M145.833 74.917 L 145.833 93.333 157.167 93.333 L 168.500 93.333 168.500 91.333 L 168.500 89.333 159.667 89.333 L 150.833 89.333 150.833 82.833 L 150.833 76.333 158.417 76.333 L 166.000 76.333 166.000 74.333 L 166.000 72.333 158.417 72.333 L 150.833 72.333 150.833 66.417 L 150.833 60.500 159.583 60.500 L 168.333 60.500 168.333 58.500 L 168.333 56.500 157.083 56.500 L 145.833 56.500 145.833 74.917 M184.050 57.542 C 183.857 58.115,183.436 59.296,183.113 60.167 C 182.790 61.038,182.328 62.313,182.085 63.000 C 181.842 63.688,181.581 64.400,181.505 64.583 C 181.429 64.767,181.291 65.142,181.199 65.417 C 181.107 65.692,180.974 66.067,180.905 66.250 C 180.836 66.433,180.771 66.621,180.761 66.667 C 180.751 66.712,180.456 67.537,180.105 68.500 C 179.754 69.462,179.167 71.075,178.802 72.083 C 178.436 73.092,177.885 74.592,177.578 75.417 C 177.271 76.242,176.868 77.367,176.683 77.917 C 176.137 79.543,175.060 82.535,174.777 83.211 C 174.633 83.557,174.516 83.857,174.518 83.878 C 174.520 83.899,174.480 84.029,174.429 84.167 C 174.378 84.304,174.153 84.942,173.930 85.583 C 173.707 86.225,173.249 87.500,172.912 88.417 C 172.575 89.333,172.202 90.383,172.083 90.750 C 171.964 91.117,171.709 91.779,171.516 92.222 C 171.324 92.665,171.167 93.096,171.167 93.180 C 171.167 93.267,172.281 93.333,173.716 93.333 L 176.265 93.333 176.961 91.375 C 178.748 86.349,179.500 84.166,179.500 84.005 C 179.500 83.885,181.674 83.843,186.443 83.873 L 193.386 83.917 193.818 85.188 C 194.056 85.887,194.772 88.006,195.409 89.896 L 196.568 93.333 199.118 93.333 C 200.520 93.333,201.667 93.306,201.667 93.272 C 201.667 93.104,200.925 90.937,199.919 88.167 C 199.303 86.471,198.702 84.783,198.584 84.417 C 198.466 84.050,198.055 82.887,197.670 81.833 C 197.286 80.779,196.952 79.842,196.928 79.750 C 196.903 79.658,196.842 79.471,196.792 79.333 C 196.487 78.502,194.400 72.569,193.772 70.750 C 193.361 69.558,192.675 67.608,192.248 66.417 C 190.746 62.226,189.291 58.075,189.051 57.292 L 188.808 56.500 186.605 56.500 L 184.401 56.500 184.050 57.542 M235.500 58.500 L 235.500 60.500 241.500 60.500 L 247.500 60.500 247.500 76.917 L 247.500 93.333 250.000 93.333 L 252.500 93.333 252.500 76.917 L 252.500 60.500 258.583 60.500 L 264.667 60.500 264.667 58.500 L 264.667 56.500 250.083 56.500 L 235.500 56.500 235.500 58.500 M269.833 74.917 L 269.833 93.333 272.333 93.333 L 274.833 93.333 274.833 85.250 L 274.833 77.167 283.750 77.167 L 292.667 77.167 292.667 85.250 L 292.667 93.333 295.167 93.333 L 297.667 93.333 297.667 74.917 L 297.667 56.500 295.167 56.500 L 292.667 56.500 292.667 64.833 L 292.667 73.167 283.750 73.167 L 274.833 73.167 274.833 64.833 L 274.833 56.500 272.333 56.500 L 269.833 56.500 269.833 74.917 M339.115 57.704 C 338.885 58.371,338.385 59.779,338.005 60.833 C 337.624 61.887,337.201 63.087,337.065 63.500 C 336.928 63.913,336.744 64.400,336.656 64.583 C 336.567 64.767,336.428 65.142,336.346 65.417 C 336.264 65.692,335.957 66.554,335.664 67.333 C 335.371 68.112,335.030 69.050,334.906 69.417 C 334.782 69.783,334.485 70.608,334.245 71.250 C 334.006 71.892,333.748 72.604,333.670 72.833 C 333.395 73.649,331.970 77.626,330.983 80.333 C 330.432 81.846,329.755 83.721,329.479 84.500 C 329.203 85.279,328.875 86.179,328.750 86.500 C 328.625 86.821,328.177 88.058,327.755 89.250 C 327.333 90.442,326.841 91.793,326.661 92.253 C 326.481 92.713,326.333 93.145,326.333 93.212 C 326.333 93.279,327.485 93.333,328.892 93.333 L 331.450 93.333 331.994 91.708 C 332.293 90.815,333.035 88.677,333.644 86.959 L 334.750 83.834 341.611 83.834 L 348.472 83.833 348.734 84.542 C 349.060 85.424,350.330 89.163,351.113 91.542 L 351.702 93.333 354.268 93.333 C 355.679 93.333,356.833 93.311,356.833 93.283 C 356.833 93.255,356.490 92.261,356.070 91.074 C 355.650 89.888,355.167 88.504,354.996 88.000 C 354.480 86.475,352.881 81.951,352.669 81.417 C 352.560 81.142,352.446 80.795,352.415 80.646 C 352.385 80.497,352.172 79.897,351.941 79.312 C 351.710 78.728,351.147 77.162,350.689 75.833 C 350.232 74.504,349.473 72.329,349.003 71.000 C 348.532 69.671,347.703 67.308,347.159 65.750 C 346.614 64.192,345.657 61.492,345.030 59.750 L 343.890 56.583 341.712 56.537 L 339.533 56.491 339.115 57.704 M129.968 60.989 C 134.132 62.431,135.710 67.568,133.268 71.734 C 131.921 74.033,131.447 74.159,124.125 74.163 L 118.000 74.167 118.000 67.327 L 118.000 60.488 123.315 60.507 L 128.630 60.526 129.968 60.989 M187.719 67.258 C 188.305 68.995,189.324 72.029,189.984 74.000 C 190.644 75.971,191.246 77.733,191.321 77.917 C 191.748 78.954,191.833 79.205,191.833 79.425 C 191.833 79.631,191.045 79.667,186.435 79.667 L 181.038 79.667 182.031 76.792 C 182.578 75.210,183.426 72.754,183.917 71.333 C 185.877 65.656,186.505 63.949,186.598 64.043 C 186.629 64.074,187.134 65.521,187.719 67.258 M342.872 67.204 C 343.412 68.788,343.953 70.421,344.076 70.833 C 344.199 71.246,344.906 73.346,345.648 75.500 C 346.390 77.654,346.998 79.473,346.999 79.542 C 346.999 79.610,344.570 79.667,341.600 79.667 L 336.200 79.667 337.189 76.792 C 337.733 75.210,338.747 72.267,339.442 70.250 C 340.137 68.233,340.901 66.004,341.140 65.295 C 341.683 63.684,341.668 63.667,342.872 67.204 M68.776 71.690 C 74.395 73.889,71.223 83.272,65.368 81.772 C 61.624 80.813,59.615 76.072,61.852 73.476 C 62.813 72.361,63.049 72.149,63.692 71.820 C 65.040 71.132,67.210 71.077,68.776 71.690 M306.167 77.750 L 306.167 79.667 313.583 79.667 L 321.000 79.667 321.000 77.750 L 321.000 75.833 313.583 75.833 L 306.167 75.833 306.167 77.750 " stroke="none" fill="#000000" fill-rule="evenodd"></path><path id="path1" d="M112.911 65.333 C 112.911 70.237,112.932 72.244,112.958 69.792 C 112.984 67.340,112.984 63.327,112.958 60.875 C 112.932 58.423,112.911 60.429,112.911 65.333 M112.910 85.750 C 112.910 89.967,112.932 91.668,112.958 89.530 C 112.985 87.393,112.985 83.943,112.958 81.864 C 112.932 79.784,112.910 81.533,112.910 85.750 M309.886 79.792 C 311.978 79.818,315.353 79.818,317.386 79.791 C 319.420 79.765,317.708 79.743,313.583 79.743 C 309.458 79.743,307.795 79.765,309.886 79.792 " stroke="none" fill="#049ccc" fill-rule="evenodd"></path><path id="path2" d="M321.064 77.833 C 321.064 78.979,321.091 79.448,321.123 78.875 C 321.156 78.302,321.156 77.365,321.123 76.792 C 321.091 76.219,321.064 76.688,321.064 77.833 " stroke="none" fill="#000000" fill-rule="evenodd"></path><path id="path3" d="" stroke="none" fill="#089cc4" fill-rule="evenodd"></path><path id="path4" d="" stroke="none" fill="#089cc4" fill-rule="evenodd"></path></g></svg>